<svg width="36" height="36" viewBox="0 0 36 36" fill="none" xmlns="http://www.w3.org/2000/svg">
<path d="M22.5001 28.791V7.20899L10.1678 18L22.5001 28.791ZM21.0173 30.4852L8.6873 19.6942C8.44563 19.4831 8.25194 19.2226 8.11922 18.9304C7.98651 18.6382 7.91785 18.3209 7.91785 18C7.91785 17.679 7.98651 17.3618 8.11922 17.0696C8.25194 16.7774 8.44563 16.5169 8.6873 16.3057L21.0173 5.51474C21.3426 5.22969 21.7432 5.04446 22.1712 4.98123C22.5991 4.918 23.0361 4.97946 23.43 5.15823C23.8239 5.33701 24.1579 5.62553 24.392 5.98924C24.6261 6.35295 24.7504 6.77644 24.7501 7.20899V28.791C24.7504 29.2235 24.6261 29.647 24.392 30.0107C24.1579 30.3745 23.8239 30.663 23.43 30.8418C23.0361 31.0205 22.5991 31.082 22.1712 31.0188C21.7432 30.9555 21.3426 30.7703 21.0173 30.4852V30.4852Z" fill="black"/>
</svg>
