<?xml version="1.0" encoding="UTF-8" standalone="no"?>
<svg
   xmlns:dc="http://purl.org/dc/elements/1.1/"
   xmlns:cc="http://creativecommons.org/ns#"
   xmlns:rdf="http://www.w3.org/1999/02/22-rdf-syntax-ns#"
   xmlns:svg="http://www.w3.org/2000/svg"
   xmlns="http://www.w3.org/2000/svg"
   xmlns:sodipodi="http://sodipodi.sourceforge.net/DTD/sodipodi-0.dtd"
   xmlns:inkscape="http://www.inkscape.org/namespaces/inkscape"
   version="1.1"
   id="Layer_1"
   x="0px"
   y="0px"
   viewBox="0 0 341.33325 512.00037"
   xml:space="preserve"
   sodipodi:docname="arrow-top.svg"
   width="341.33325"
   height="512.00037"
   inkscape:version="1.0.2 (e86c870879, 2021-01-15)"><metadata
   id="metadata150"><rdf:RDF><cc:Work
       rdf:about=""><dc:format>image/svg+xml</dc:format><dc:type
         rdf:resource="http://purl.org/dc/dcmitype/StillImage" /><dc:title></dc:title></cc:Work></rdf:RDF></metadata><defs
   id="defs148" /><sodipodi:namedview
   pagecolor="#ffffff"
   bordercolor="#666666"
   borderopacity="1"
   objecttolerance="10"
   gridtolerance="10"
   guidetolerance="10"
   inkscape:pageopacity="0"
   inkscape:pageshadow="2"
   inkscape:window-width="1920"
   inkscape:window-height="1019"
   id="namedview146"
   showgrid="false"
   inkscape:zoom="0.69824219"
   inkscape:cx="-198.34721"
   inkscape:cy="125.66687"
   inkscape:window-x="0"
   inkscape:window-y="35"
   inkscape:window-maximized="1"
   inkscape:current-layer="Layer_1"
   borderlayer="false"
   fit-margin-top="0"
   fit-margin-left="0"
   fit-margin-right="0"
   fit-margin-bottom="0" />
<g
   id="g113"
   transform="rotate(-90,213.33381,298.66656)">
	<g
   id="g111">
		<path
   d="m 508.875,248.458 -160,-160 c -4.167,-4.167 -10.917,-4.167 -15.083,0 -4.167,4.167 -4.167,10.917 0,15.083 L 475.584,245.333 H 10.667 C 4.771,245.333 0,250.104 0,256 c 0,5.896 4.771,10.667 10.667,10.667 H 475.584 L 333.792,408.458 c -4.167,4.167 -4.167,10.917 0,15.083 2.083,2.083 4.813,3.125 7.542,3.125 2.729,0 5.458,-1.042 7.542,-3.125 l 160,-160 c 4.166,-4.166 4.166,-10.916 -10e-4,-15.083 z"
   id="path109" />
	</g>
</g>
<g
   id="g115"
   transform="translate(-85.33356,8.0501125e-4)">
</g>
<g
   id="g117"
   transform="translate(-85.33356,8.0501125e-4)">
</g>
<g
   id="g119"
   transform="translate(-85.33356,8.0501125e-4)">
</g>
<g
   id="g121"
   transform="translate(-85.33356,8.0501125e-4)">
</g>
<g
   id="g123"
   transform="translate(-85.33356,8.0501125e-4)">
</g>
<g
   id="g125"
   transform="translate(-85.33356,8.0501125e-4)">
</g>
<g
   id="g127"
   transform="translate(-85.33356,8.0501125e-4)">
</g>
<g
   id="g129"
   transform="translate(-85.33356,8.0501125e-4)">
</g>
<g
   id="g131"
   transform="translate(-85.33356,8.0501125e-4)">
</g>
<g
   id="g133"
   transform="translate(-85.33356,8.0501125e-4)">
</g>
<g
   id="g135"
   transform="translate(-85.33356,8.0501125e-4)">
</g>
<g
   id="g137"
   transform="translate(-85.33356,8.0501125e-4)">
</g>
<g
   id="g139"
   transform="translate(-85.33356,8.0501125e-4)">
</g>
<g
   id="g141"
   transform="translate(-85.33356,8.0501125e-4)">
</g>
<g
   id="g143"
   transform="translate(-85.33356,8.0501125e-4)">
</g>
</svg>
