<svg width="36" height="36" viewBox="0 0 36 36" fill="none" xmlns="http://www.w3.org/2000/svg">
<path d="M13.5 28.791V7.20901L25.8323 18L13.5 28.791ZM14.9828 30.4853L27.3128 19.6943C27.5544 19.4831 27.7481 19.2226 27.8808 18.9304C28.0135 18.6382 28.0822 18.321 28.0822 18C28.0822 17.6791 28.0135 17.3618 27.8808 17.0696C27.7481 16.7774 27.5544 16.5169 27.3128 16.3058L14.985 5.51476C13.5248 4.24126 11.25 5.27626 11.25 7.20901V28.791C11.2496 29.2236 11.3739 29.647 11.6081 30.0108C11.8422 30.3745 12.1762 30.663 12.5701 30.8418C12.9639 31.0205 13.401 31.082 13.8289 31.0188C14.2568 30.9555 14.6574 30.7703 14.9828 30.4853V30.4853Z" fill="black"/>
</svg>
