<svg width="18" height="18" viewBox="0 0 18 18" fill="none" xmlns="http://www.w3.org/2000/svg">
<path d="M5.74191 14.1383C4.70405 14.1383 3.86273 15.0028 3.86273 16.0692C3.86273 17.1356 4.70409 18 5.74191 18C6.77978 18 7.62109 17.1355 7.62109 16.0692C7.62113 15.0028 6.77978 14.1383 5.74191 14.1383ZM5.74191 17.1419C5.16533 17.1419 4.69793 16.6616 4.69793 16.0692C4.69793 15.4768 5.16533 14.9965 5.74191 14.9965C6.3185 14.9965 6.78589 15.4768 6.78589 16.0692C6.78593 16.6616 6.3185 17.1419 5.74191 17.1419Z" fill="black"/>
<path d="M13.6763 14.1383C12.6384 14.1383 11.7971 15.0028 11.7971 16.0692C11.7971 17.1356 12.6385 18 13.6763 18C14.7141 18 15.5554 17.1355 15.5554 16.0692C15.5554 15.0028 14.7141 14.1383 13.6763 14.1383ZM13.6763 17.1419C13.0997 17.1419 12.6323 16.6616 12.6323 16.0692C12.6323 15.4768 13.0997 14.9965 13.6763 14.9965C14.2528 14.9965 14.7202 15.4768 14.7202 16.0692C14.7203 16.6616 14.2528 17.1419 13.6763 17.1419Z" fill="black"/>
<path d="M17.9148 2.87489C17.8279 2.77728 17.7089 2.71617 17.5808 2.70324L3.98805 2.51015L3.61221 1.33016C3.34745 0.541354 2.62855 0.00882888 1.81654 0H0.417596C0.186957 0 0 0.1921 0 0.429084C0 0.666067 0.186957 0.858167 0.417596 0.858167H1.81654C2.27058 0.868474 2.67039 1.16804 2.81879 1.60907L5.47052 9.82601L5.26174 10.3194C5.02886 10.9365 5.0988 11.631 5.44965 12.1859C5.79715 12.731 6.38176 13.0674 7.01565 13.087H15.1379C15.3685 13.087 15.5555 12.8949 15.5555 12.6579C15.5555 12.421 15.3685 12.2289 15.1379 12.2289H7.01561C6.65764 12.2197 6.32813 12.0262 6.13865 11.714C5.9513 11.4056 5.91281 11.0256 6.03427 10.6841L6.20132 10.298L14.9917 9.35397C15.9573 9.2447 16.7515 8.52311 16.9753 7.55181L17.9775 3.23954C18.0227 3.11536 17.9987 2.9757 17.9148 2.87489ZM16.161 7.35877C16.0254 7.98402 15.5088 8.44522 14.8873 8.49585L6.20132 9.41836L4.25949 3.36832L17.0588 3.56141L16.161 7.35877Z" fill="black"/>
</svg>
