<svg width="16" height="16" viewBox="0 0 16 16" fill="none" xmlns="http://www.w3.org/2000/svg">
<path d="M8 1.75C6.76387 1.75 5.5555 2.11656 4.52769 2.80331C3.49988 3.49007 2.6988 4.46619 2.22576 5.60823C1.75271 6.75027 1.62894 8.00693 1.87009 9.21931C2.11125 10.4317 2.70651 11.5453 3.58059 12.4194C4.45466 13.2935 5.56831 13.8888 6.78069 14.1299C7.99307 14.3711 9.24974 14.2473 10.3918 13.7742C11.5338 13.3012 12.5099 12.5001 13.1967 11.4723C13.8834 10.4445 14.25 9.23613 14.25 8C14.2481 6.34297 13.5891 4.75434 12.4174 3.58265C11.2457 2.41095 9.65703 1.75187 8 1.75ZM8 13.75C6.86276 13.75 5.75106 13.4128 4.80547 12.781C3.85989 12.1491 3.1229 11.2511 2.6877 10.2004C2.25249 9.14975 2.13862 7.99362 2.36049 6.87823C2.58235 5.76284 3.12999 4.73829 3.93414 3.93414C4.73829 3.12998 5.76284 2.58235 6.87823 2.36048C7.99362 2.13862 9.14976 2.25249 10.2004 2.68769C11.2511 3.1229 12.1491 3.85989 12.781 4.80547C13.4128 5.75105 13.75 6.86276 13.75 8C13.7483 9.52447 13.1419 10.986 12.064 12.064C10.986 13.1419 9.52447 13.7483 8 13.75ZM5.75019 7.99969C5.75022 8.47191 5.89881 8.93215 6.17492 9.31523C6.45103 9.69832 6.84067 9.98483 7.28864 10.1342C7.73662 10.2835 8.22024 10.2882 8.67099 10.1474C9.12175 10.0067 9.5168 9.72767 9.80019 9.34994C9.8402 9.29745 9.89935 9.26291 9.96472 9.25386C10.0301 9.24481 10.0964 9.26198 10.1492 9.30162C10.2019 9.34126 10.2369 9.40016 10.2464 9.46547C10.2559 9.53078 10.2392 9.59721 10.1999 9.65025C9.85355 10.1118 9.37071 10.4528 8.81982 10.6247C8.26892 10.7967 7.67788 10.791 7.13041 10.6084C6.58293 10.4258 6.10677 10.0757 5.76936 9.60746C5.43195 9.13926 5.25039 8.57677 5.25039 7.99966C5.25039 7.42254 5.43195 6.86005 5.76936 6.39185C6.10677 5.92365 6.58293 5.57347 7.13041 5.39089C7.67788 5.20832 8.26892 5.20261 8.81982 5.37458C9.37071 5.54654 9.85355 5.88747 10.1999 6.34906C10.2398 6.40207 10.2569 6.46874 10.2476 6.53439C10.2383 6.60005 10.2033 6.65932 10.1503 6.69916C10.0973 6.739 10.0306 6.75615 9.96495 6.74683C9.8993 6.73752 9.84003 6.70251 9.80019 6.6495C9.5168 6.27178 9.12176 5.99278 8.67101 5.85203C8.22026 5.71128 7.73665 5.7159 7.28867 5.86525C6.8407 6.01459 6.45106 6.30109 6.17495 6.68417C5.89883 7.06724 5.75023 7.52747 5.75019 7.99969Z" fill="black"/>
</svg>
