<svg width="20" height="20" viewBox="0 0 20 20" fill="none" xmlns="http://www.w3.org/2000/svg">
<path d="M15.0781 2.07031C15.0781 2.28607 14.9033 2.46094 14.6875 2.46094C14.4717 2.46094 14.2969 2.28607 14.2969 2.07031C14.2969 1.85455 14.4717 1.67969 14.6875 1.67969C14.9033 1.67969 15.0781 1.85455 15.0781 2.07031Z" fill="black"/>
<path d="M14.6875 4.14062H5.3125C4.23553 4.14062 3.35938 5.01678 3.35938 6.09375V15.4688C3.35938 16.5457 4.23553 17.4219 5.3125 17.4219H9.21875C9.43451 17.4219 9.60938 17.247 9.60938 17.0312V13.125C9.60938 12.9092 9.43451 12.7344 9.21875 12.7344H8.04688V11.1719H9.21875C9.43451 11.1719 9.60938 10.997 9.60938 10.7812V9.21875C9.60938 8.14178 10.4855 7.26562 11.5625 7.26562H13.5156V8.82812H11.9531C11.5224 8.82812 11.1719 9.17862 11.1719 9.60938V10.7812C11.1719 10.997 11.3467 11.1719 11.5625 11.1719H13.4451L13.1847 12.7344H11.5625C11.3467 12.7344 11.1719 12.9092 11.1719 13.125V17.0312C11.1719 17.247 11.3467 17.4219 11.5625 17.4219H14.6875C15.7645 17.4219 16.6406 16.5457 16.6406 15.4688V6.09375C16.6406 5.01678 15.7645 4.14062 14.6875 4.14062ZM15.8594 15.4688C15.8594 16.115 15.3337 16.6406 14.6875 16.6406H11.9531V13.5156H13.5156C13.7067 13.5156 13.8696 13.3775 13.9009 13.1892L14.2915 10.8455C14.3312 10.6082 14.1483 10.3906 13.9062 10.3906H11.9531V9.60938H13.9062C14.122 9.60938 14.2969 9.43451 14.2969 9.21875V6.875C14.2969 6.65924 14.122 6.48438 13.9062 6.48438H11.5625C10.0548 6.48438 8.82812 7.71103 8.82812 9.21875V10.3906H7.65625C7.44049 10.3906 7.26562 10.5655 7.26562 10.7812V13.125C7.26562 13.3408 7.44049 13.5156 7.65625 13.5156H8.82812V16.6406H5.3125C4.66629 16.6406 4.14062 16.115 4.14062 15.4688V6.09375C4.14062 5.44754 4.66629 4.92188 5.3125 4.92188H14.6875C15.3337 4.92188 15.8594 5.44754 15.8594 6.09375V15.4688Z" fill="black"/>
<path d="M18.0469 0H1.95312C0.87616 0 0 0.87616 0 1.95312V18.0469C0 19.1238 0.87616 20 1.95312 20H18.0469C19.1238 20 20 19.1238 20 18.0469V1.95312C20 0.87616 19.1238 0 18.0469 0ZM19.2188 18.0469C19.2188 18.6931 18.6931 19.2188 18.0469 19.2188H1.95312C1.30692 19.2188 0.78125 18.6931 0.78125 18.0469V1.95312C0.78125 1.30692 1.30692 0.78125 1.95312 0.78125H18.0469C18.6931 0.78125 19.2188 1.30692 19.2188 1.95312V18.0469Z" fill="black"/>
<path d="M5.3125 2.46094H13.125C13.3408 2.46094 13.5156 2.28607 13.5156 2.07031C13.5156 1.85455 13.3408 1.67969 13.125 1.67969H5.3125C5.09674 1.67969 4.92188 1.85455 4.92188 2.07031C4.92188 2.28607 5.09674 2.46094 5.3125 2.46094Z" fill="black"/>
</svg>
