<svg width="20" height="20" viewBox="0 0 20 20" fill="none" xmlns="http://www.w3.org/2000/svg">
<path d="M15.0781 2.07031C15.0781 2.28607 14.9033 2.46094 14.6875 2.46094C14.4717 2.46094 14.2969 2.28607 14.2969 2.07031C14.2969 1.85455 14.4717 1.67969 14.6875 1.67969C14.9033 1.67969 15.0781 1.85455 15.0781 2.07031Z" fill="black"/>
<path d="M14.6875 4.14062H5.3125C4.23553 4.14062 3.35938 5.01678 3.35938 6.09375V15.4688C3.35938 16.5457 4.23553 17.4219 5.3125 17.4219H14.6875C15.7645 17.4219 16.6406 16.5457 16.6406 15.4688V6.09375C16.6406 5.01678 15.7645 4.14062 14.6875 4.14062ZM15.8594 15.4688C15.8594 16.115 15.3337 16.6406 14.6875 16.6406H5.3125C4.66629 16.6406 4.14062 16.115 4.14062 15.4688V6.09375C4.14062 5.44754 4.66629 4.92188 5.3125 4.92188H14.6875C15.3337 4.92188 15.8594 5.44754 15.8594 6.09375V15.4688Z" fill="black"/>
<path d="M10 7.26562C8.06152 7.26562 6.48438 8.84277 6.48438 10.7812C6.48438 12.7197 8.06152 14.2969 10 14.2969C11.9385 14.2969 13.5156 12.7197 13.5156 10.7812C13.5156 8.84277 11.9385 7.26562 10 7.26562ZM10 13.5156C8.49228 13.5156 7.26562 12.289 7.26562 10.7812C7.26562 9.27353 8.49228 8.04688 10 8.04688C11.5077 8.04688 12.7344 9.27353 12.7344 10.7812C12.7344 12.289 11.5077 13.5156 10 13.5156Z" fill="black"/>
<path d="M13.9062 5.70312C13.26 5.70312 12.7344 6.22879 12.7344 6.875C12.7344 7.52121 13.26 8.04688 13.9062 8.04688C14.5525 8.04688 15.0781 7.52121 15.0781 6.875C15.0781 6.22879 14.5525 5.70312 13.9062 5.70312ZM13.9062 7.26562C13.6908 7.26562 13.5156 7.09045 13.5156 6.875C13.5156 6.65955 13.6908 6.48438 13.9062 6.48438C14.1217 6.48438 14.2969 6.65955 14.2969 6.875C14.2969 7.09045 14.1217 7.26562 13.9062 7.26562Z" fill="black"/>
<path d="M18.0469 0H1.95312C0.87616 0 0 0.87616 0 1.95312V18.0469C0 19.1238 0.87616 20 1.95312 20H18.0469C19.1238 20 20 19.1238 20 18.0469V1.95312C20 0.87616 19.1238 0 18.0469 0ZM19.2188 18.0469C19.2188 18.6931 18.6931 19.2188 18.0469 19.2188H1.95312C1.30692 19.2188 0.78125 18.6931 0.78125 18.0469V1.95312C0.78125 1.30692 1.30692 0.78125 1.95312 0.78125H18.0469C18.6931 0.78125 19.2188 1.30692 19.2188 1.95312V18.0469Z" fill="black"/>
<path d="M5.3125 2.46094H13.125C13.3408 2.46094 13.5156 2.28607 13.5156 2.07031C13.5156 1.85455 13.3408 1.67969 13.125 1.67969H5.3125C5.09674 1.67969 4.92188 1.85455 4.92188 2.07031C4.92188 2.28607 5.09674 2.46094 5.3125 2.46094Z" fill="black"/>
</svg>
