 <svg width="132" height="74" viewBox="0 0 132 74" fill="none" xmlns="http://www.w3.org/2000/svg">
<g opacity="0.999">
<path opacity="0.999" d="M14.5679 1.76465L6.83973 1.08496C6.30622 1.03804 5.84015 1.49008 5.79874 2.09462L1.07504 71.0558C1.03363 71.6603 1.43256 72.1884 1.96608 72.2354L9.6942 72.915C10.2277 72.962 10.6938 72.5099 10.7352 71.9054L15.4589 2.94424C15.5003 2.33969 15.1014 1.81158 14.5679 1.76465Z" fill="#FF3333" stroke="#FBFFFF" stroke-width="0.420166" stroke-linejoin="round"/>
<path opacity="0.999" d="M45.3856 28.806H15.8335C15.2984 28.806 14.8646 29.2976 14.8646 29.9039V71.6246C14.8646 72.231 15.2984 72.7225 15.8335 72.7225H45.3856C45.9207 72.7225 46.3545 72.231 46.3545 71.6246V29.9039C46.3545 29.2976 45.9207 28.806 45.3856 28.806Z" fill="#FFCC33" stroke="#FBFFFF" stroke-width="0.420166" stroke-linejoin="round"/>
<path opacity="0.999" d="M33.3087 19.9438H15.8682C15.333 19.9438 14.8992 20.4353 14.8992 21.0417V27.0802C14.8992 27.6866 15.333 28.1781 15.8682 28.1781H33.3087C33.8438 28.1781 34.2777 27.6866 34.2777 27.0802V21.0417C34.2777 20.4353 33.8438 19.9438 33.3087 19.9438Z" fill="#6633CC" stroke="#FBFFFF" stroke-width="0.420166" stroke-linejoin="round"/>
<path opacity="0.999" d="M82.7616 35.012L57.4996 26.5022C56.7815 26.2603 56.0263 26.7238 55.8129 27.5375L46.9222 61.4246C46.7088 62.2383 47.1178 63.094 47.8359 63.3359L73.0979 71.8458C73.816 72.0877 74.5712 71.6242 74.7847 70.8105L83.6753 36.9234C83.8888 36.1097 83.4797 35.254 82.7616 35.012Z" fill="#FF3333" stroke="#FBFFFF" stroke-width="0.420166" stroke-linejoin="round"/>
<path opacity="0.999" d="M119.567 12.3403H82.7479C82.2128 12.3403 81.779 12.8319 81.779 13.4382V71.6276C81.779 72.234 82.2128 72.7256 82.7479 72.7256H119.567C120.102 72.7256 120.536 72.234 120.536 71.6276V13.4382C120.536 12.8319 120.102 12.3403 119.567 12.3403Z" fill="#6633CC" stroke="#FBFFFF" stroke-width="0.420166" stroke-linejoin="round"/>
<path opacity="0.999" d="M130.031 26.0642H122.28C121.745 26.0642 121.311 26.5558 121.311 27.1621V71.6276C121.311 72.234 121.745 72.7255 122.28 72.7255H130.031C130.566 72.7255 131 72.234 131 71.6276V27.1621C131 26.5558 130.566 26.0642 130.031 26.0642Z" fill="#FFCC33" stroke="#FBFFFF" stroke-width="0.420166" stroke-linejoin="round"/>
</g>
<path d="M20.386 25.0182H23.0694V28.6652C23.0694 28.9924 23.0594 29.3418 23.0396 29.7136C23.0197 30.0779 22.9899 30.379 22.9501 30.617H23.0097L27.3925 25.0182H30.6871V32.9814H28.0037V29.5351C28.0037 29.3344 28.0087 29.1039 28.0186 28.8437C28.0286 28.576 28.0435 28.312 28.0634 28.0518C28.0932 27.7916 28.118 27.5685 28.1379 27.3826H28.0783L23.6955 32.9814H20.386V25.0182Z" fill="white" stroke="black" stroke-width="0.539" stroke-linecap="round" stroke-linejoin="round"/>
<path d="M44.0718 24.9547V26.6946H39.8679V32.9179H36.9759V24.9547H44.0718Z" fill="white" stroke="black" stroke-width="0.539" stroke-linecap="round" stroke-linejoin="round"/>
<path d="M53.2674 24.9547C54.619 24.9547 55.6278 25.1741 56.2936 25.6127C56.9694 26.0514 57.3073 26.676 57.3073 27.4864C57.3073 27.8508 57.2378 28.2002 57.0986 28.5348C56.9595 28.862 56.7309 29.1594 56.4129 29.427C56.1048 29.6873 55.6924 29.8955 55.1756 30.0516C54.6588 30.2003 54.0228 30.2747 53.2674 30.2747H52.4625V32.9179H49.5853V24.9547H53.2674ZM53.2078 26.6946H52.4624V28.5237H53.0289C53.4066 28.5237 53.7345 28.453 54.0128 28.3118C54.2911 28.163 54.4302 27.9065 54.4302 27.5422C54.4302 27.2894 54.3308 27.0849 54.1321 26.9288C53.9333 26.7726 53.6252 26.6946 53.2078 26.6946Z" fill="white" stroke="black" stroke-width="0.539" stroke-linecap="round" stroke-linejoin="round"/>
<path d="M72.958 28.9246C72.958 29.7499 72.7791 30.4712 72.4213 31.0883C72.0735 31.698 71.5169 32.1738 70.7517 32.5159C69.9964 32.8579 69.0075 33.0289 67.7851 33.0289C66.5925 33.0289 65.6136 32.8579 64.8484 32.5159C64.0831 32.1738 63.5166 31.6943 63.1489 31.0771C62.7911 30.46 62.6122 29.7388 62.6122 28.9135C62.6122 28.0881 62.7961 27.3706 63.1638 26.7609C63.5315 26.1438 64.098 25.668 64.8633 25.3334C65.6285 24.9988 66.6074 24.8315 67.8 24.8315C69.0125 24.8315 69.9964 25.0025 70.7517 25.3445C71.5169 25.6791 72.0735 26.155 72.4213 26.7721C72.7791 27.3818 72.958 28.0993 72.958 28.9246ZM65.6385 28.9246C65.6385 29.6458 65.8024 30.2109 66.1304 30.6199C66.4683 31.0288 67.0199 31.2333 67.7851 31.2333C68.5802 31.2333 69.1367 31.0288 69.4547 30.6199C69.7728 30.2109 69.9318 29.6458 69.9318 28.9246C69.9318 28.2034 69.7728 27.6346 69.4547 27.2182C69.1367 26.8018 68.5851 26.5936 67.8 26.5936C67.0149 26.5936 66.4583 26.8018 66.1304 27.2182C65.8024 27.6346 65.6385 28.2034 65.6385 28.9246Z" fill="white" stroke="black" stroke-width="0.539" stroke-linecap="round" stroke-linejoin="round"/>
<path d="M82.5861 24.9547C84.1265 24.9547 85.2247 25.1257 85.8806 25.4677C86.5365 25.8098 86.8645 26.3005 86.8645 26.9399C86.8645 27.2894 86.78 27.5868 86.6111 27.8322C86.4421 28.0701 86.2284 28.2597 85.9701 28.401C85.7216 28.5423 85.4632 28.6389 85.1949 28.691V28.7467C85.4831 28.7988 85.7713 28.888 86.0595 29.0144C86.3477 29.1408 86.5862 29.3304 86.775 29.5832C86.9738 29.8286 87.0732 30.1631 87.0732 30.587C87.0732 31.3082 86.7105 31.877 85.985 32.2934C85.2595 32.7097 84.2706 32.9179 83.0184 32.9179H78.8741V24.9547H82.5861ZM82.6159 28.0106C83.0929 28.0106 83.4258 27.9363 83.6147 27.7876C83.8134 27.6389 83.9128 27.4604 83.9128 27.2522C83.9128 26.8061 83.4606 26.583 82.5562 26.583H81.7512V28.0106H82.6159ZM81.7512 29.5832V31.2561H82.7649C83.2619 31.2561 83.6097 31.1781 83.8085 31.0219C84.0072 30.8583 84.1066 30.6539 84.1066 30.4085C84.1066 30.1929 84.0072 30.0033 83.8085 29.8397C83.6097 29.6687 83.242 29.5832 82.7053 29.5832H81.7512Z" fill="white" stroke="black" stroke-width="0.539" stroke-linecap="round" stroke-linejoin="round"/>
<path d="M99.4441 32.9174L98.9223 31.4229H95.4638L94.9271 32.9174H91.7668L95.2402 24.9207H99.0714L102.59 32.9174H99.4441ZM97.8639 28.3558C97.8142 28.2145 97.7446 28.0138 97.6552 27.7535C97.5657 27.4859 97.4763 27.2108 97.3869 26.9282C97.2974 26.6457 97.2279 26.4152 97.1782 26.2367C97.1384 26.4152 97.0738 26.6382 96.9844 26.9059C96.9049 27.1736 96.8204 27.4375 96.7309 27.6978C96.6514 27.958 96.5819 28.1773 96.5222 28.3558L96.0601 29.6607H98.326L97.8639 28.3558Z" fill="white" stroke="black" stroke-width="0.539" stroke-linecap="round" stroke-linejoin="round"/>
<path d="M111.8 30.0182L109.698 32.9179H106.434L109.355 29.4382C108.918 29.2523 108.531 28.9884 108.193 28.6463C107.855 28.2969 107.686 27.8508 107.686 27.308C107.686 25.7391 109.132 24.9547 112.024 24.9547H115.557V32.9179H112.68V30.0182H111.8ZM112.069 26.583C111.671 26.583 111.363 26.6277 111.144 26.7169C110.936 26.7987 110.792 26.9028 110.712 27.0292C110.633 27.1556 110.593 27.282 110.593 27.4084C110.593 27.7801 110.737 28.0404 111.025 28.1891C111.313 28.3303 111.686 28.401 112.143 28.401H112.68V26.583H112.069Z" fill="white" stroke="black" stroke-width="0.539" stroke-linecap="round" stroke-linejoin="round"/>
<path d="M17.5314 57.1128V49.1496H26.2522V57.1128H23.3602V50.9117H20.4234V57.1128H17.5314Z" fill="white" stroke="black" stroke-width="0.539" stroke-linecap="round" stroke-linejoin="round"/>
<path d="M42.4991 53.0561C42.4991 53.8814 42.3202 54.6026 41.9624 55.2198C41.6146 55.8295 41.0581 56.3053 40.2928 56.6473C39.5375 56.9894 38.5486 57.1604 37.3262 57.1604C36.1336 57.1604 35.1547 56.9894 34.3895 56.6473C33.6242 56.3053 33.0578 55.8257 32.69 55.2086C32.3323 54.5915 32.1534 53.8703 32.1534 53.0449C32.1534 52.2196 32.3372 51.5021 32.7049 50.8924C33.0727 50.2753 33.6391 49.7994 34.4044 49.4648C35.1696 49.1302 36.1486 48.963 37.3411 48.963C38.5536 48.963 39.5375 49.134 40.2928 49.476C41.0581 49.8106 41.6146 50.2864 41.9624 50.9036C42.3202 51.5133 42.4991 52.2308 42.4991 53.0561ZM35.1796 53.0561C35.1796 53.7773 35.3436 54.3424 35.6715 54.7513C36.0094 55.1603 36.561 55.3647 37.3262 55.3647C38.1213 55.3647 38.6778 55.1603 38.9959 54.7513C39.3139 54.3424 39.4729 53.7773 39.4729 53.0561C39.4729 52.3349 39.3139 51.7661 38.9959 51.3497C38.6778 50.9333 38.1263 50.7251 37.3411 50.7251C36.556 50.7251 35.9995 50.9333 35.6715 51.3497C35.3436 51.7661 35.1796 52.3349 35.1796 53.0561Z" fill="white" stroke="black" stroke-width="0.539" stroke-linecap="round" stroke-linejoin="round"/>
<path d="M57.1807 57.0494H54.2887V50.8483H52.2613C52.2215 51.1458 52.1718 51.4804 52.1122 51.8521C52.0625 52.2239 52.0029 52.6068 51.9333 53.0009C51.8638 53.3875 51.7892 53.763 51.7097 54.1273C51.6302 54.4842 51.5507 54.7965 51.4712 55.0642C51.2824 55.7185 50.9495 56.2315 50.4724 56.6033C50.0053 56.975 49.2749 57.1609 48.281 57.1609C48.0624 57.1609 47.8587 57.1498 47.6698 57.1275C47.4909 57.1052 47.317 57.0754 47.1481 57.0382V55.3765C47.2872 55.4062 47.4114 55.4322 47.5208 55.4545C47.6301 55.4768 47.7444 55.488 47.8636 55.488C48.0226 55.488 48.1618 55.4545 48.281 55.3876C48.4102 55.3132 48.5295 55.1608 48.6388 54.9303C48.7481 54.6998 48.8575 54.3429 48.9668 53.8596C49.0165 53.6515 49.086 53.3094 49.1755 52.8336C49.2749 52.3577 49.3792 51.7963 49.4885 51.1495C49.6078 50.4952 49.7221 49.8074 49.8314 49.0862H57.1807V57.0494Z" fill="white" stroke="black" stroke-width="0.539" stroke-linecap="round" stroke-linejoin="round"/>
<path d="M73.4276 53.0561C73.4276 53.8814 73.2487 54.6026 72.8909 55.2198C72.5431 55.8295 71.9865 56.3053 71.2213 56.6473C70.466 56.9894 69.4771 57.1604 68.2547 57.1604C67.0621 57.1604 66.0832 56.9894 65.318 56.6473C64.5527 56.3053 63.9862 55.8257 63.6185 55.2086C63.2607 54.5915 63.0818 53.8703 63.0818 53.0449C63.0818 52.2196 63.2657 51.5021 63.6334 50.8924C64.0011 50.2753 64.5676 49.7994 65.3329 49.4648C66.0981 49.1302 67.077 48.963 68.2696 48.963C69.4821 48.963 70.466 49.134 71.2213 49.476C71.9865 49.8106 72.5431 50.2864 72.8909 50.9036C73.2487 51.5133 73.4276 52.2308 73.4276 53.0561ZM66.108 53.0561C66.108 53.7773 66.272 54.3424 66.6 54.7513C66.9379 55.1603 67.4895 55.3647 68.2547 55.3647C69.0498 55.3647 69.6063 55.1603 69.9243 54.7513C70.2424 54.3424 70.4014 53.7773 70.4014 53.0561C70.4014 52.3349 70.2424 51.7661 69.9243 51.3497C69.6063 50.9333 69.0547 50.7251 68.2696 50.7251C67.4845 50.7251 66.928 50.9333 66.6 51.3497C66.272 51.7661 66.108 52.3349 66.108 53.0561Z" fill="white" stroke="black" stroke-width="0.539" stroke-linecap="round" stroke-linejoin="round"/>
<path d="M88.0646 57.0494H85.1726V54.105C84.5167 54.2686 83.9204 54.3913 83.3837 54.4731C82.857 54.5474 82.3551 54.5846 81.8781 54.5846C80.8842 54.5846 80.0991 54.3987 79.5227 54.0269C78.9562 53.6552 78.673 53.131 78.673 52.4544V49.0862H81.565V51.7406C81.565 52.0975 81.6594 52.3689 81.8483 52.5548C82.047 52.7332 82.3899 52.8224 82.8769 52.8224C83.175 52.8224 83.5179 52.7927 83.9055 52.7332C84.2931 52.6737 84.7154 52.5808 85.1726 52.4544V49.0862H88.0646V57.0494Z" fill="white" stroke="black" stroke-width="0.539" stroke-linecap="round" stroke-linejoin="round"/>
<path d="M103.656 57.0494H100.406L97.2454 53.012V57.0494H94.3534V49.0862H97.2454V52.9451L100.287 49.0862H103.447L100.167 52.8893L103.656 57.0494Z" fill="white" stroke="black" stroke-width="0.539" stroke-linecap="round" stroke-linejoin="round"/>
<path d="M115.266 57.0489L114.744 55.5544H111.286L110.749 57.0489H107.589L111.062 49.0522H114.893L118.412 57.0489H115.266ZM113.686 52.4873C113.636 52.346 113.567 52.1453 113.477 51.885C113.388 51.6174 113.298 51.3423 113.209 51.0597C113.12 50.7772 113.05 50.5467 113 50.3682C112.96 50.5467 112.896 50.7697 112.806 51.0374C112.727 51.3051 112.642 51.569 112.553 51.8293C112.474 52.0895 112.404 52.3088 112.344 52.4873L111.882 53.7922H114.148L113.686 52.4873Z" fill="white" stroke="black" stroke-width="0.539" stroke-linecap="round" stroke-linejoin="round"/>
</svg>
