<svg width="20" height="20" viewBox="0 0 20 20" fill="none" xmlns="http://www.w3.org/2000/svg">
<path d="M15.0781 2.07031C15.0781 2.28607 14.9033 2.46094 14.6875 2.46094C14.4717 2.46094 14.2969 2.28607 14.2969 2.07031C14.2969 1.85455 14.4717 1.67969 14.6875 1.67969C14.9033 1.67969 15.0781 1.85455 15.0781 2.07031Z" fill="black"/>
<path d="M15.5221 5.53454L3.9987 10.0267C3.84871 10.0852 3.74983 10.2298 3.74998 10.391C3.75014 10.5519 3.84901 10.6964 3.99916 10.7547L6.24602 11.6277C6.50328 12.2707 7.6689 15.1859 7.68736 15.2298C7.7957 15.4862 8.1288 15.5492 8.32304 15.3543L10.0633 13.6141L13.2725 16.1652C13.4971 16.3437 13.8359 16.2268 13.8975 15.9418L16.046 5.98086C16.1099 5.6824 15.8168 5.41995 15.5221 5.53454ZM11.4075 7.97702L6.50954 10.8919L5.21773 10.39L11.4075 7.97702ZM12.5619 8.19918L8.5649 11.845C8.51302 11.8924 8.47029 11.9597 8.45091 12.0323C8.45076 12.0326 8.45061 12.0331 8.45061 12.0334L7.97163 13.8384L7.0323 11.4899L12.5619 8.19918ZM9.05257 12.8108L9.44777 13.1249L8.79652 13.7761L9.05257 12.8108ZM13.2663 15.1622C12.5206 14.5694 10.1214 12.6627 9.43007 12.1132L15.0246 7.01037L13.2663 15.1622Z" fill="black"/>
<path d="M18.0469 0H1.95312C0.87616 0 0 0.87616 0 1.95312V18.0469C0 19.1238 0.87616 20 1.95312 20H18.0469C19.1238 20 20 19.1238 20 18.0469V1.95312C20 0.87616 19.1238 0 18.0469 0ZM19.2188 18.0469C19.2188 18.6931 18.6931 19.2188 18.0469 19.2188H1.95312C1.30692 19.2188 0.78125 18.6931 0.78125 18.0469V1.95312C0.78125 1.30692 1.30692 0.78125 1.95312 0.78125H18.0469C18.6931 0.78125 19.2188 1.30692 19.2188 1.95312V18.0469Z" fill="black"/>
<path d="M5.3125 2.46094H13.125C13.3408 2.46094 13.5156 2.28607 13.5156 2.07031C13.5156 1.85455 13.3408 1.67969 13.125 1.67969H5.3125C5.09674 1.67969 4.92188 1.85455 4.92188 2.07031C4.92188 2.28607 5.09674 2.46094 5.3125 2.46094Z" fill="black"/>
</svg>
