<svg width="20" height="20" viewBox="0 0 20 20" fill="none" xmlns="http://www.w3.org/2000/svg">
<path d="M15.0781 2.07031C15.0781 2.28607 14.9033 2.46094 14.6875 2.46094C14.4717 2.46094 14.2969 2.28607 14.2969 2.07031C14.2969 1.85455 14.4717 1.67969 14.6875 1.67969C14.9033 1.67969 15.0781 1.85455 15.0781 2.07031Z" fill="black"/>
<path d="M14.6173 11.8122C14.4806 11.6287 14.5102 11.5083 14.6149 11.3242C14.7455 11.0949 15.0055 10.7447 15.2808 10.3741C16.1636 9.18511 16.7334 8.3619 16.6155 7.77474C16.5787 7.5921 16.4183 7.46102 16.2325 7.46102C16.2314 7.46102 14.3102 7.46148 13.6011 7.46499C13.429 7.46575 13.2776 7.57562 13.2286 7.74072C13.1433 8.0285 12.8102 8.8067 12.4065 9.51913C11.8829 10.4429 11.5399 10.7324 11.4191 10.7832L11.4 10.7772C11.3605 10.7284 11.2918 10.5966 11.2636 10.2552C11.2341 9.89816 11.2602 9.46633 11.2856 9.0487C11.3152 8.56042 11.3408 8.13867 11.2796 7.83792C11.2375 7.7279 11.2695 7.36642 10.9329 7.29058C10.4694 7.18606 9.84024 7.15112 9.39163 7.14639C8.32916 7.13586 8.01651 7.28921 7.86331 7.42456C7.75879 7.51687 7.71134 7.65801 7.73911 7.79473C7.76673 7.93145 7.86514 8.04315 7.99744 8.08755C8.23563 8.16766 8.32062 8.26928 8.38867 8.74917C8.43186 9.05541 8.45444 9.56964 8.40759 10.0285C8.34168 10.6757 8.18466 10.8053 8.16925 10.8158C8.13584 10.8048 7.87491 10.6916 7.40372 9.7355C6.99829 8.91305 6.65802 7.92489 6.49902 7.51504C6.44074 7.36474 6.29608 7.26571 6.1348 7.26571H3.79929C3.6705 7.26571 3.54996 7.32919 3.47702 7.43539C3.40424 7.54159 3.38837 7.67694 3.43491 7.79717C4.16656 9.69171 5.0061 11.6322 6.18363 12.99C7.40204 14.3952 8.90595 15.0782 10.7813 15.0782C10.997 15.0782 11.1719 14.9033 11.1719 14.6876C11.1719 14.0138 11.2666 13.8137 11.4145 13.533C11.4964 13.3779 11.5765 13.3114 11.6202 13.3016C11.6597 13.2925 11.7294 13.3216 11.8069 13.3795C12.0291 13.5449 12.2055 13.7626 12.3921 13.993C12.6611 14.325 12.9393 14.6685 13.381 14.8937C13.6218 15.016 14.0524 15.0779 14.2996 15.0742H16.25C16.472 15.0742 16.6495 14.8933 16.6403 14.6714C16.5926 13.5168 14.9744 12.261 14.6173 11.8122ZM14.2969 14.297C14.2947 14.297 14.2928 14.297 14.2906 14.297C14.1277 14.3009 13.8316 14.2465 13.7352 14.1973C13.4419 14.0478 13.2367 13.7945 12.9991 13.5014C12.7904 13.2435 12.5745 12.9769 12.2737 12.7529C11.7197 12.3399 11.0924 12.4702 10.7236 13.1684C10.517 13.5603 10.4369 13.8184 10.4036 14.2866C8.92761 14.2036 7.76657 13.6231 6.77384 12.4781C5.7814 11.3336 5.02838 9.69979 4.37164 8.04696H5.86456C6.44837 9.61938 7.20566 11.5978 8.16803 11.5978C8.40454 11.5978 8.61664 11.4976 8.78159 11.3078C9.41498 10.5789 9.16489 8.6593 9.16214 8.63977C9.12873 8.40341 9.08081 8.15499 8.96469 7.93359C9.46076 7.91406 10.1259 7.94625 10.5161 8.00424C10.5537 8.20764 10.5293 8.61108 10.5057 9.0014C10.4482 9.95172 10.3886 10.9327 10.8984 11.3802C10.9137 11.3937 11.1968 11.5655 11.3715 11.5717C11.6892 11.5844 12.2086 11.4295 13.0487 9.96987C13.3913 9.37463 13.7096 8.6892 13.8809 8.24136C14.4453 8.24029 15.2362 8.23846 15.7555 8.23892C15.5264 8.74459 15.02 9.41491 14.6535 9.90838C14.3512 10.3155 14.0901 10.667 13.936 10.9377C13.6493 11.4413 13.6975 11.8897 13.996 12.2855C13.9975 12.2878 13.9992 12.29 14.0009 12.2921C14.3715 12.763 15.3336 13.4931 15.7344 14.297H14.2969Z" fill="black"/>
<path d="M18.0469 0H1.95312C0.87616 0 0 0.87616 0 1.95312V18.0469C0 19.1238 0.87616 20 1.95312 20H18.0469C19.1238 20 20 19.1238 20 18.0469V1.95312C20 0.87616 19.1238 0 18.0469 0ZM19.2188 18.0469C19.2188 18.6931 18.6931 19.2188 18.0469 19.2188H1.95312C1.30692 19.2188 0.78125 18.6931 0.78125 18.0469V1.95312C0.78125 1.30692 1.30692 0.78125 1.95312 0.78125H18.0469C18.6931 0.78125 19.2188 1.30692 19.2188 1.95312V18.0469Z" fill="black"/>
<path d="M5.3125 2.46094H13.125C13.3408 2.46094 13.5156 2.28607 13.5156 2.07031C13.5156 1.85455 13.3408 1.67969 13.125 1.67969H5.3125C5.09674 1.67969 4.92188 1.85455 4.92188 2.07031C4.92188 2.28607 5.09674 2.46094 5.3125 2.46094Z" fill="black"/>
</svg>
