<svg width="20" height="20" viewBox="0 0 20 20" fill="none" xmlns="http://www.w3.org/2000/svg">
<path d="M15.0781 2.07031C15.0781 2.28607 14.9033 2.46094 14.6875 2.46094C14.4717 2.46094 14.2969 2.28607 14.2969 2.07031C14.2969 1.85455 14.4717 1.67969 14.6875 1.67969C14.9033 1.67969 15.0781 1.85455 15.0781 2.07031Z" fill="black"/>
<path d="M10 4.14062C6.33835 4.14062 3.35938 7.1196 3.35938 10.7812C3.35938 11.9899 3.68515 13.1662 4.30313 14.1953L3.44711 16.8423C3.40195 16.9818 3.43872 17.135 3.54248 17.2388C3.64624 17.3425 3.79944 17.3793 3.9389 17.3341L6.586 16.4781C7.61505 17.0961 8.7915 17.4219 10 17.4219C13.6617 17.4219 16.6406 14.4429 16.6406 10.7812C16.6406 7.1196 13.6617 4.14062 10 4.14062ZM10 16.6406C8.87833 16.6406 7.78854 16.3228 6.8483 15.7217C6.74988 15.6587 6.62842 15.6433 6.51764 15.6792L4.42551 16.3557L5.10208 14.2635C5.13794 14.1525 5.12238 14.0312 5.05951 13.933C4.45847 12.9927 4.14062 11.9029 4.14062 10.7812C4.14062 7.55035 6.7691 4.92188 10 4.92188C13.2309 4.92188 15.8594 7.55035 15.8594 10.7812C15.8594 14.0121 13.2309 16.6406 10 16.6406Z" fill="black"/>
<path d="M18.0469 0H1.95312C0.87616 0 0 0.87616 0 1.95312V18.0469C0 19.1238 0.87616 20 1.95312 20H18.0469C19.1238 20 20 19.1238 20 18.0469V1.95312C20 0.87616 19.1238 0 18.0469 0ZM19.2188 18.0469C19.2188 18.6931 18.6931 19.2188 18.0469 19.2188H1.95312C1.30692 19.2188 0.78125 18.6931 0.78125 18.0469V1.95312C0.78125 1.30692 1.30692 0.78125 1.95312 0.78125H18.0469C18.6931 0.78125 19.2188 1.30692 19.2188 1.95312V18.0469Z" fill="black"/>
<path d="M5.3125 2.46094H13.125C13.3408 2.46094 13.5156 2.28607 13.5156 2.07031C13.5156 1.85455 13.3408 1.67969 13.125 1.67969H5.3125C5.09674 1.67969 4.92188 1.85455 4.92188 2.07031C4.92188 2.28607 5.09674 2.46094 5.3125 2.46094Z" fill="black"/>
<path d="M12.8137 11.1402C12.657 10.9834 12.4487 10.8972 12.2272 10.8972C12.227 10.8972 12.2269 10.8972 12.2267 10.8972C12.0051 10.8972 11.797 10.9837 11.6411 11.14L11.3304 11.4504C11.1403 11.6405 10.8324 11.6405 10.6422 11.4504L9.40139 10.2092C9.21249 10.0205 9.20974 9.71284 9.40154 9.52119L9.71206 9.21068C10.0345 8.8875 10.0345 8.36137 9.7116 8.03789L8.47106 6.79765C8.14742 6.47325 7.62221 6.47295 7.29797 6.79735L6.98791 7.10741C6.54388 7.55128 6.39556 8.48878 6.60125 9.5537C6.82372 10.7062 7.40173 11.7963 8.22845 12.6232C9.05517 13.4499 10.1453 14.0277 11.2978 14.2504C12.0726 14.3999 13.1914 14.417 13.7442 13.8637L14.0539 13.5539C14.3785 13.2303 14.3788 12.7054 14.0543 12.3808L12.8137 11.1402ZM13.1917 13.3113C12.9797 13.5233 12.3122 13.6504 11.4459 13.4833C10.8662 13.3713 9.74914 13.039 8.78081 12.0706C7.81264 11.1025 7.48031 9.98537 7.36831 9.40569C7.20107 8.53944 7.32818 7.87172 7.54012 7.65993C7.54012 7.65993 7.54028 7.65993 7.54028 7.65977L7.85049 7.34972C7.86925 7.33095 7.89916 7.33049 7.91839 7.34972L9.15893 8.58995C9.17785 8.60887 9.17785 8.63985 9.15923 8.65846L8.84933 8.96852C8.35357 9.46367 8.35296 10.2661 8.84902 10.7617L10.0897 12.0027C10.5849 12.4979 11.3872 12.4985 11.8826 12.0029L12.1936 11.6922C12.2122 11.6736 12.2423 11.6738 12.2612 11.6925C13.5683 13.0066 13.5161 12.9296 13.5161 12.9674C13.5161 13.0023 13.5115 12.9851 13.1917 13.3113Z" fill="black"/>
</svg>
